<svg id="Layer_1" data-name="Layer 1" xmlns="http://www.w3.org/2000/svg" viewBox="0 0 1280 1369"><defs><style>.cls-1,.cls-2{fill:none;stroke:#fff;stroke-miterlimit:10;}.cls-1{stroke-linecap:round;stroke-width:50px;}.cls-2{stroke-width:40px;}.cls-3{fill:#fff;}</style></defs><path class="cls-1" d="M207,892.86,612.44,190.59a31.83,31.83,0,0,1,55.12,0L1073,892.86"/><line class="cls-1" x1="179.43" y1="517.86" x2="1100.57" y2="517.86"/><line class="cls-2" x1="206.99" y1="897.78" x2="1073.01" y2="897.78"/><text/><path class="cls-3" d="M237.53,1234.36H186L165,1176.15H89.51l-21,58.21H17.33l89.15-232.17h41.24Zm-87.81-99.78-22.62-62.21-22.29,62.21Z"/><path class="cls-3" d="M308.38,1234.36H260.81V1002.19h47.57Z"/><path class="cls-3" d="M475.68,1135.57c3,2.67,6.66,8.32,9.32,12.31l55.21,86.48H485l-46.57-77.83c-7-12-10-15.63-24.28-15.63H402.51v93.46H354.94V1002.19h85.15c45.24,0,80.5,21.62,80.5,70.52C520.59,1101.65,503,1126.26,475.68,1135.57Zm-35.25-87.48H402.51V1099h37.92c18.29,0,32.59-4.66,32.59-26C473,1052.08,458.06,1048.09,440.43,1048.09Z"/><path class="cls-3" d="M716.84,1022.48H643v211.88H622.37V1022.48H548.53v-20.29H716.84Z"/><path class="cls-3" d="M903.77,1234.36H881.82l-26.28-68.85H749.77l-25.95,68.85H701.54l89.14-232.17h24Zm-55.21-87.14-45.9-121.08-45.91,121.08Z"/><path class="cls-3" d="M1067.42,1234.36h-135V1002.19H953v212.88h114.42Z"/><path class="cls-3" d="M1102,1234.36V1002.19h20.62v232.17Zm47.23-117.08,104.11,117.08h-26.28L1125.3,1118l95.46-115.76h24Z"/></svg>